<?xml version="1.0" encoding="utf-8"?>
<!-- Generator: Adobe Illustrator 25.2.1, SVG Export Plug-In . SVG Version: 6.00 Build 0)  -->
<svg version="1.1" id="gameScript" xmlns="http://www.w3.org/2000/svg" xmlns:xlink="http://www.w3.org/1999/xlink" x="0px" y="0px" width="200" height="200"
	 viewBox="0 0 200 200"  xml:space="preserve">
<defs xmlns="http://www.w3.org/2000/svg">
	<linearGradient x1="69.644116%" y1="0%" x2="54.0428975%" y2="108.456714%" id="color">
		<stop stop-color="#29CDFF" offset="0%"/>
		<stop stop-color="#148EFF" offset="37.8600687%"/>
		<stop stop-color="#0A60FF" offset="100%"/>
	</linearGradient>
</defs>
<g id="logo">
	<path d="M171.48,66.22c-5.32-6.32-12.05-10.73-19.25-14.52c-5.75-3.02-11.6-5.83-17.8-7.82
		c-4.39-1.41-8.92-2.28-13.44-3.15c-5.36-1.03-10.75-1.88-16.19-2.19c-10.84-0.62-21.34,0.77-30.99,6.17
		c-6.86,3.83-11.83,9.39-13.88,17.07c-2.39,8.97-1.52,17.56,4.08,25.31c2.96,4.1,6.76,7.29,11.02,9.93
		c5.15,3.19,10.7,5.57,16.28,7.87c4.87,2.01,9.82,3.81,14.58,6.08c3.65,1.74,7.18,3.7,10.15,6.5c2.53,2.38,4.5,5.08,5.15,8.59
		c1.48,8.07-1.92,15.36-9.09,19.45c-3.71,2.12-7.74,3.31-11.95,3.79c-6.46,0.74-12.87,0.4-19.19-1.18
		c-6.38-1.59-12.44-3.99-18.16-7.25c-1.27-0.73-2.57-1.45-4.11-1.44c-1.22,0-2.08,0.55-2.57,1.67c-0.39,0.87-0.59,1.79-0.65,2.72
		c-0.17,2.53-0.32,5.06,0.51,7.53c0.52,1.53,1.48,2.69,2.81,3.57c3.23,2.12,6.77,3.57,10.42,4.76c6.49,2.12,13.15,3.39,19.98,3.72
		c8.48,0.42,16.83-0.28,24.98-2.79c6.27-1.93,11.97-4.89,16.76-9.44c6.22-5.92,9.59-13.15,9.97-21.77
		c0.29-6.43-0.97-12.39-4.71-17.74c-2.31-3.31-5.18-6.03-8.43-8.39c-4.44-3.24-9.39-5.53-14.4-7.69
		c-5.87-2.52-11.82-4.84-17.68-7.36c-4.46-1.92-8.75-4.17-12.38-7.49c-2.45-2.25-4.43-4.82-5.2-8.15c-1.78-7.59,1.66-14.66,8.76-18
		c4.65-2.19,9.56-2.97,14.66-2.68c3.42,0.19,6.84,0.41,10.25,0.69c11.82,0.97,22.97,4.11,33.4,9.8c4.55,2.48,8.99,5.13,12.88,8.61
		c8.01,7.16,13.18,16.05,15.86,26.41c1.79,6.91,2.21,13.9,1.2,20.97c-1.5,10.43-5.52,19.8-11.76,28.28
		c-12.28,16.69-28.47,27.43-48.69,32.01c-7.64,1.73-15.4,2.19-23.23,1.63c-28.7-2.02-54.49-19.39-67.07-45.26
		c-4.03-8.28-6.61-16.98-7.69-26.14c-4.93-41.78,22.51-79.69,62.72-88.87c7.52-1.71,15.14-2.28,22.84-1.84
		c27.99,1.59,53.65,18.04,66.78,42.83c0.78,1.48,1.49,3,2.23,4.5C171.31,65.77,171.39,66,171.48,66.22z"  fill="url(#color)"/>
</g>
</svg>
